HIERARCHY
ROOT Hips
{
    OFFSET 0.000000 0.000000 0.000000
    CHANNELS 6 Xposition Yposition Zposition Zrotation Xrotation Yrotation
        JOINT Chest
        {
            OFFSET -0.000000 31.571314 -0.000000
            CHANNELS 3 Zrotation Xrotation Yrotation
            JOINT Neck
            {
                OFFSET -0.000000 23.394884 0.000000
                CHANNELS 3 Zrotation Xrotation Yrotation
                JOINT Head
                {
                    OFFSET -0.000000 10.877778 0.000000
                    CHANNELS 3 Zrotation Xrotation Yrotation
                    End Site
                    {
                        OFFSET -0.000000 16.811111 0.000000
                    }
                }
            }
            JOINT LeftCollar
            {
                OFFSET -0.000000 23.394884 0.000000
                CHANNELS 3 Zrotation Xrotation Yrotation
                JOINT LeftShoulder
                {
                    OFFSET 21.500002 -0.000000 0.000000
                    CHANNELS 3 Zrotation Xrotation Yrotation
                    JOINT LeftElbow
                    {
                        OFFSET 24.792776 0.000000 0.000000
                        CHANNELS 3 Zrotation Xrotation Yrotation
                        JOINT LeftWrist
                        {
                            OFFSET 26.439411 0.000000 0.000000
                            CHANNELS 3 Zrotation Xrotation Yrotation
                            End Site
                            {
                                OFFSET 0.000000 -14.833334 0.000000
                            }
                        }
                    }
                }
            }
            JOINT RightCollar
            {
                OFFSET -0.000000 23.394884 0.000000
                CHANNELS 3 Zrotation Xrotation Yrotation
                JOINT RightShoulder
                {
                    OFFSET -21.500002 0.000000 0.000000
                    CHANNELS 3 Zrotation Xrotation Yrotation
                    JOINT RightElbow
                    {
                        OFFSET -24.792776 0.000000 0.000000
                        CHANNELS 3 Zrotation Xrotation Yrotation
                        JOINT RightWrist
                        {
                            OFFSET -26.439411 0.000000 0.000000
                            CHANNELS 3 Zrotation Xrotation Yrotation
                            End Site
                            {
                                OFFSET -0.000000 -14.833334 0.000000
                            }
                        }
                    }
                }
            }
        }
    JOINT LeftHip
    {
        OFFSET 11.866667 0.000000 0.000000
        CHANNELS 3 Zrotation Xrotation Yrotation
        JOINT LeftKnee
        {
            OFFSET -0.000000 -38.580112 0.000000
            CHANNELS 3 Zrotation Xrotation Yrotation
            JOINT LeftAnkle
            {
                OFFSET -0.000000 -41.767254 0.000000
                CHANNELS 3 Zrotation Xrotation Yrotation
                End Site
                {
                    OFFSET -0.000000 -4.944444 16.811111
                }
            }
        }
    }
    JOINT RightHip
    {
        OFFSET -11.866667 0.000000 0.000000
        CHANNELS 3 Zrotation Xrotation Yrotation
        JOINT RightKnee
        {
            OFFSET -0.000000 -38.580112 0.000000
            CHANNELS 3 Zrotation Xrotation Yrotation
            JOINT RightAnkle
            {
                OFFSET -0.000000 -41.767254 0.000000
                CHANNELS 3 Zrotation Xrotation Yrotation
                End Site
                {
                    OFFSET -0.000000 -4.944444 16.811111
                }
            }
        }
    }
}
MOTION
Frames:    8
Frame Time:    0.010000
-93.784050    89.211594    -53.507309    -5.693484    -4.917598    18.049574    1.613313    18.147556    8.236979    -2.559093    -3.842822    -2.470990    10.978337    -9.971053    -1.423600    -17.250191    -0.716615    4.595736    -47.168114    31.937300    -14.337762    17.120680    -8.438339    -53.498966    121.984894    -1.850880    6.332680    16.722258    0.292181    1.890861    -4.325926    76.183319    69.351280    -36.866211    -9.223529    26.779955    -116.249924    25.759853    -31.497576    22.592987    -9.882986    9.447955    -1.316198    12.584256    -0.734195    -14.322793    0.727914    15.965716    3.885487    8.368035    4.884137    -2.583828    4.031483    16.104620    -1.966240    -7.644115    -21.801420    
-94.236671    89.236511    -53.662937    -5.727226    -4.928662    18.034960    2.033465    18.216719    7.866305    -2.326795    -4.172825    -2.153592    10.289083    -9.666786    -1.196703    -17.487658    -0.701306    4.585539    -46.540398    32.262386    -14.980741    16.596672    -8.214014    -53.958797    121.983208    -2.096848    6.211807    16.564146    0.247783    1.597735    -8.565478    76.522423    73.544357    -38.109859    -9.641889    26.958603    -115.142830    25.782578    -33.448040    22.542473    -9.487041    10.010914    -0.887457    11.613332    -1.999732    -13.817224    0.312030    16.534349    4.171498    8.168087    4.751348    -2.615181    4.043585    16.423464    -2.350272    -7.378880    -21.796415    
-94.673668    89.261955    -53.825706    -5.754946    -4.934686    18.081837    2.459797    18.287830    7.483561    -2.054983    -4.478973    -1.864635    9.579448    -9.409774    -0.993302    -17.732834    -0.692802    4.538677    -45.881413    32.576668    -15.688913    16.072186    -8.011435    -54.434143    121.858093    -2.371988    6.061930    16.391460    0.209173    1.278540    -13.322740    76.750473    78.276138    -39.329285    -10.023485    27.049826    -114.246391    25.754147    -35.302559    22.509001    -9.140569    10.586738    -0.550890    10.704823    -3.217973    -13.264985    -0.215610    17.057339    4.445145    7.964353    4.587291    -2.642611    4.063492    16.753120    -2.728711    -7.120381    -21.811874    
-95.093552    89.288536    -53.995750    -5.760667    -4.925275    18.198709    2.872463    18.344160    7.086905    -1.743852    -4.755818    -1.601056    8.853747    -9.198023    -0.812317    -17.975943    -0.683877    4.463971    -45.206661    32.889286    -16.452282    15.520016    -7.788252    -54.903618    121.638344    -2.666905    5.908568    16.204531    0.171291    0.934959    -18.581593    76.845810    83.529434    -40.509739    -10.361464    27.041552    -113.577698    25.724051    -37.081146    22.473461    -8.851954    11.128156    -0.313118    9.859439    -4.270465    -12.683411    -0.803113    17.495232    4.685932    7.762511    4.405885    -2.662141    4.073809    17.059057    -3.091696    -6.871347    -21.845320    
-95.495644    89.316978    -54.172932    -5.729573    -4.893585    18.392363    3.252485    18.374123    6.675458    -1.403025    -5.007287    -1.358133    8.125607    -9.018284    -0.654393    -18.207556    -0.673710    4.371881    -44.524441    33.225651    -17.274536    14.959840    -7.561164    -55.357403    121.319550    -2.980309    5.770291    16.004534    0.129094    0.571737    -24.216209    76.786919    89.177246    -41.624416    -10.644171    26.937101    -113.138947    25.744625    -38.820354    22.418148    -8.626567    11.592143    -0.173603    9.077995    -5.046634    -12.087416    -1.387868    17.810677    4.876951    7.568666    4.222014    -2.670865    4.061518    17.304487    -3.431524    -6.634566    -21.891941    
-95.880135    89.348175    -54.356922    -5.651008    -4.837084    18.666250    3.584456    18.372620    6.249839    -1.048959    -5.243551    -1.135634    7.415893    -8.852462    -0.512867    -18.415848    -0.709297    4.275858    -43.852055    33.653957    -18.139845    14.463061    -7.384586    -55.790363    120.875641    -3.306742    5.673017    15.794919    0.068341    0.196459    -29.999418    76.568451    94.992424    -42.662170    -10.864287    26.743361    -112.911003    25.853273    -40.551762    22.330851    -8.467467    11.947773    -0.125679    8.364460    -5.461511    -11.489680    -1.907310    17.978781    5.007928    7.388371    4.050533    -2.667753    4.019348    17.455875    -3.742155    -6.412738    -21.946301    
-96.248070    89.383156    -54.547291    -5.520112    -4.756752    19.019026    3.858618    18.339413    5.813701    -0.700134    -5.471428    -0.932073    6.746013    -8.690719    -0.382451    -18.602005    -0.695015    4.186534    -43.151806    34.102642    -19.093645    13.885639    -7.116909    -56.179607    120.454124    -3.649302    5.609325    15.580928    0.019859    -0.183144    -35.506947    76.177681    100.547752    -43.538197    -11.003757    26.528440    -112.916862    26.105305    -42.265163    22.207426    -8.376563    12.182628    -0.158934    7.727911    -5.467688    -10.901209    -2.307967    17.993052    5.076110    7.224879    3.905557    -2.653659    3.946133    17.486488    -4.018435    -6.207188    -22.002560    
-96.601089    89.423012    -54.743462    -5.337411    -4.656925    19.444279    4.071757    18.279417    5.372654    -0.375301    -5.695256    -0.743182    6.135861    -8.529513    -0.260658    -18.759659    -0.678403    4.112985    -42.414791    34.648773    -20.156126    13.378075    -6.917655    -56.537636    119.964645    -4.018837    5.579822    15.367530    -0.038108    -0.558374    -40.582664    75.652596    105.690010    -44.311165    -11.097434    26.259228    -113.100815    26.485098    -43.954514    22.051571    -8.354471    12.305475    -0.260923    7.184216    -5.063546    -10.330822    -2.552980    17.867250    5.085148    7.079401    3.798018    -2.630914    3.846654    17.380983    -4.256653    -6.018112    -22.055578    
